<svg width="225" height="207" viewBox="0 0 225 207" fill="none" xmlns="http://www.w3.org/2000/svg">
<path d="M159 50.5673V18C159 12.4772 154.523 8 149 8H18C12.4772 8 8 12.4772 8 18V189C8 194.523 12.4772 199 18 199H149C154.523 199 159 194.523 159 189V178.269V157.538" stroke="black" stroke-width="16" stroke-linecap="round"/>
<path d="M217.5 110.5C221.642 110.5 225 107.142 225 103C225 98.8579 221.642 95.5 217.5 95.5V110.5ZM53.1967 97.6967C50.2678 100.626 50.2678 105.374 53.1967 108.303L100.926 156.033C103.855 158.962 108.604 158.962 111.533 156.033C114.462 153.104 114.462 148.355 111.533 145.426L69.1066 103L111.533 60.5736C114.462 57.6447 114.462 52.8959 111.533 49.967C108.604 47.0381 103.855 47.0381 100.926 49.967L53.1967 97.6967ZM217.5 95.5L58.5 95.5V110.5L217.5 110.5V95.5Z" fill="black"/>
</svg>
