<svg width="251" height="207" viewBox="0 0 251 207" fill="none" xmlns="http://www.w3.org/2000/svg">
<path d="M159 50.5673V18C159 12.4772 154.523 8 149 8H18C12.4772 8 8 12.4772 8 18V189C8 194.523 12.4772 199 18 199H149C154.523 199 159 194.523 159 189V178.269V157.538" stroke="black" stroke-width="16" stroke-linecap="round"/>
<path d="M84 95.5C79.8579 95.5 76.5 98.8579 76.5 103C76.5 107.142 79.8579 110.5 84 110.5V95.5ZM248.303 108.303C251.232 105.374 251.232 100.626 248.303 97.6967L200.574 49.967C197.645 47.0381 192.896 47.0381 189.967 49.967C187.038 52.8959 187.038 57.6447 189.967 60.5736L232.393 103L189.967 145.426C187.038 148.355 187.038 153.104 189.967 156.033C192.896 158.962 197.645 158.962 200.574 156.033L248.303 108.303ZM84 110.5L243 110.5V95.5L84 95.5V110.5Z" fill="black"/>
</svg>
